<svg version="1" xmlns="http://www.w3.org/2000/svg" width="1365.333" height="1365.333" viewBox="0 0 1024.000000 1024.000000"><path d="M484 5.1c-85.1 4.8-168.8 31.7-242.5 77.8-54.9 34.3-105.2 81.3-143.3 133.8C-25 386.4-31.3 611.8 82.3 786.8c43.8 67.4 106.3 126 177.3 166.1 13.7 7.7 48.3 24.3 61.9 29.6 83.2 32.8 172.3 43.7 260.5 32 120.9-16.1 233.8-75.9 314.9-167 31.8-35.7 55.2-70.4 76.1-113 28.1-57.1 44.7-116.8 50-180 1.3-15.6 1.3-67.6 0-83-9.4-109.9-52.7-211.1-125.6-293.5C792.5 59.4 641.5-3.8 484 5.1zM535 106c38.3 2.2 69.1 8.1 105 20 108.2 35.8 196.8 117.7 242 223.8 42.2 99.2 43.9 211 4.8 310.2-44.8 113.4-136.4 200.5-251 238.4-60.6 20-128.1 24.8-191.8 13.6-103.6-18.3-197.9-79.2-259.3-167.3-39.2-56.3-62.2-116.5-71.4-187.2-2.7-21.5-2.5-72.9.5-95.6 5.9-44.6 16.6-82.5 34.5-121.8 37.7-82.5 104-151.4 184.7-192 55.7-27.9 112.9-41.8 177-42.9 4.1-.1 15.4.3 25 .8z"/><path d="M476 347.3v148.2L393.5 578c-45.4 45.4-82.4 83-82.3 83.6.2.6 11.9 13 26.1 27.5l25.8 26.3 94.5-94.5 94.4-94.4V199h-76v148.3z"/></svg>